<?xml version="1.0" encoding="UTF-8"?>
<svg id="Layer_1" xmlns="http://www.w3.org/2000/svg" viewBox="0 0 841.89 841.89">
  <defs>
    <style>
      .cls-1, .cls-2, .cls-3 {
        fill: #3d3e3e;
      }

      .cls-2 {
        font-family: Montserrat-Regular, Montserrat;
        font-size: 38.76px;
      }

      .cls-4 {
        fill: none;
        stroke: #3d3e3e;
        stroke-miterlimit: 10;
        stroke-width: .75px;
      }

      .cls-3 {
        font-family: FONTSPRINGDEMO-QuicheFlareThinRegular, 'FONTSPRING DEMO - Quiche Flare Thin';
        font-size: 143.1px;
        font-weight: 200;
      }

      .cls-5 {
        fill: #e6dccf;
      }

      .cls-6 {
        letter-spacing: -.07em;
      }

      .cls-7 {
        letter-spacing: -.02em;
      }

      .cls-8 {
        letter-spacing: -.01em;
      }

      .cls-9 {
        letter-spacing: -.02em;
      }

      .cls-10 {
        letter-spacing: 0em;
      }
    </style>
  </defs>
  <rect class="cls-5" x=".76" width="840.92" height="840.92"/>
  <g>
    <text class="cls-2" transform="translate(276.05 621.92)"><tspan x="0" y="0">M</tspan><tspan class="cls-7" x="37.01" y="0">O</tspan><tspan class="cls-8" x="68.71" y="0">V</tspan><tspan x="95.18" y="0">E BOLD</tspan><tspan class="cls-6" x="247.84" y="0">L</tspan><tspan x="267.8" y="0">Y</tspan></text>
    <path class="cls-1" d="M518.83,432.97c-2.26-2.84-5.39-4.18-7.58-6.83-2.82-3.41-4.85-7.3-7.19-10.99-7.49-11.83-14.94-23.68-22.25-35.62-11.55-18.87-23.2-37.67-35.27-56.21-10.34-15.87-20.53-31.83-30.6-47.87-4.23-6.74-7.8-13.94-9.24-21.81-2.06-11.3.78-21.65,7.56-30.91,2.32-3.16,2.28-3.71-1.36-5.24-10.54-4.45-21.11-5.3-31.48.49-6.19,3.46-9.02,8.99-9.06,15.97-.04,8.28,3.62,15.33,7.67,22.21,6.46,10.98,14.79,20.6,22.33,30.8,8.55,11.55,17.1,23.11,25.28,34.91,7.81,11.27,15.48,22.65,22.58,34.37,6.85,11.33,8.69,23.91,6.6,36.99-2.48,15.49-10.65,27.31-23.79,35.64-6.67,4.23-14.16,6.68-21.83,8.46-12.26,2.85-24.58,2.98-36.86.1-16.04-3.76-28.42-12.61-36.14-27.27-4.87-9.24-6.84-19.28-6.3-29.75.03-.65.03-1.31-.02-1.96-.02-.24-.22-.46-.46-.92-3.44,4.05-5.7,8.67-8.41,12.96-6.77,10.74-13.33,21.61-20.04,32.38-2,3.21-4.76,5.73-7.83,7.91-.73.52-1.76.67-2.28,2.02,3.51.35,6.96-.04,10.3.71.36.08.75.03,1.12.1,1.36.27,3.32.47,3.18,2.02-.11,1.16-2.09.65-3.24.65-14.11.04-28.22.03-42.33.03-.65,0-1.31,0-1.96-.06-.55-.05-1.2-.1-1.31-.79-.1-.65.48-.95.93-1.27.08-.05.16-.11.24-.13,10.35-2.44,14.24-11.36,19.16-19.19,6.71-10.66,13.33-21.38,19.96-32.09,13.75-22.22,27.44-44.48,41.22-66.68,4.43-7.14,9.05-14.15,13.63-21.2,2.3-3.54,2.82-3.5,5.14-.05,7.02,10.46,13.88,21.03,21.16,31.31,7.29,10.29,14.42,20.68,21.11,31.36,9.02,14.4,17.6,29.08,22.64,45.49,1.95,6.36,3.35,12.81,2.95,19.54-.05.79-.38,1.88.46,2.33,1.06.55,1.65-.57,2.29-1.16,4.41-4,8.12-8.47,9.9-14.32,1.6-5.24,1.39-10.46.17-15.72-3.19-13.8-10.38-25.75-17.82-37.49-11.75-18.53-25.33-35.79-38.12-53.6-8.16-11.37-16.21-22.85-22.39-35.49-7.5-15.33-4.53-34.23,7.31-45.85,13.55-13.31,35.75-15.36,51.39-4.68,1.6,1.1,3.27,2.37,2.5,4.8-3.27,10.34.1,19.63,5.14,28.33,10.2,17.62,22.32,34.01,33.42,51.06,8.96,13.76,18.08,27.42,26.62,41.46,5.87,9.65,11.97,19.16,17.92,28.75,10.18,16.42,20.41,32.8,30.45,49.31,3.74,6.16,8.05,11.45,15.21,13.71.69.22,1.64.49,1.53,1.38-.15,1.15-1.29.9-2.05.9-14.76.02-29.53.02-44.29,0-.71,0-1.78.25-1.97-.6-.23-1.04.89-1.32,1.65-1.51,2.82-.69,5.68-1.1,8.58-1.17,1.39-.03,2.77,0,4.16,0ZM422.26,420.66c.07-7.02-1.92-13.64-4.2-20.14-4.85-13.82-12.19-26.41-19.83-38.81-8.67-14.08-18.47-27.4-27.77-41.05-1.84-2.7-2.53-2.72-4.32.01-9.09,13.91-17.51,28.23-26.14,42.43-1.43,2.35-2.52,4.84-2.83,7.54-1.42,12.35-.15,24.3,4.92,35.82,3.98,9.04,10.32,15.79,18.97,20.2,16.75,8.55,34.31,10.18,52.49,5.3,8.15-2.18,8.71-2.87,8.73-11.3Z"/>
    <text class="cls-3" transform="translate(120.76 572.43)"><tspan class="cls-9" x="0" y="0">A</tspan><tspan x="100.88" y="0">S</tspan><tspan class="cls-10" x="189.17" y="0">K</tspan><tspan x="286.19" y="0">ANA</tspan></text>
    <line class="cls-4" x1="256.58" y1="608.77" x2="122.62" y2="608.77"/>
    <line class="cls-4" x1="721.9" y1="603.22" x2="587.94" y2="603.22"/>
  </g>
</svg>