<?xml version="1.0" encoding="UTF-8"?>
<svg id="Layer_1" xmlns="http://www.w3.org/2000/svg" viewBox="0 0 841.89 841.89">
  <defs>
    <style>
      .cls-1 {
        fill: #b97252;
      }
    </style>
  </defs>
  <g>
    <path class="cls-1" d="M204.88,447.28c0,23.51-18.99,37.52-45.21,37.52-13.78,0-27.77-3.6-37.67-9.97-.63-.4-1.39-.5-2.1-.25l-2.25.8c-1.49.53-3.08-.5-3.2-2.08l-1.14-14.77c-.19-2.49,3.04-3.57,4.42-1.48,7.47,11.33,21.38,25.26,41.95,25.26,15.15,0,26.9-7.91,26.9-20.12,0-25.09-71.88-23.96-71.88-64.64,0-23.73,23.51-33,42.94-33,11.55,0,22.29,3.64,28.97,7.48.69.4,1.53.45,2.25.11h0c1.52-.72,3.29.3,3.42,1.98l.7,8.55c.21,2.51-3.07,3.57-4.43,1.45-5.93-9.25-15.69-17.53-30.9-17.53-10.62,0-21.47,4.52-21.47,18.53,0,29.39,68.71,26.9,68.71,62.16Z"/>
    <path class="cls-1" d="M319.98,466.26c-8.82,11.98-25.09,18.54-42.04,18.54-33.23,0-60.12-26.9-60.12-60.12s26.9-60.12,60.12-60.12c14.24,0,29.16,6.33,37.75,18.76l-11.29,4.72c-1.95.82-4.19-.19-4.86-2.2-3.14-9.4-11.05-19.05-21.59-19.25-21.47,0-31.19,27.58-31.19,58.09,0,21.25,5.65,45.43,25.54,52.44,16.5,5.42,35.26-.68,47.69-10.85Z"/>
    <path class="cls-1" d="M504.46,485.66h-32.92c-1.97,0-2.78-2.44-1.26-3.69,1.95-1.61,3.71-3.98,3.71-8.28v-154.83c0-5.28-2.64-7.65-5.05-9.28-1.48-1-1.03-3.29.71-3.7l29.84-7c1.29-.3,2.53.68,2.53,2.01v172.79c0,4.3,1.76,6.67,3.71,8.28,1.52,1.25.7,3.69-1.26,3.69Z"/>
    <path class="cls-1" d="M537.1,531.09v-137.88c0-4.72-2.12-7.12-4.29-8.74-1.72-1.28-1.11-3.99.97-4.48l28.22-6.62c1.59-.37,3.12.84,3.12,2.47v8.59c0,2.38,2.97,3.44,4.49,1.61,9.18-11.01,18.72-17.02,30.77-17.02,20.05,0,38.32,16.42,45.44,39.25,13.71,43.95-22.9,88.16-68.2,80.01-3.13-.56-6.19-1.37-9.12-2.42-1.65-.59-3.38.63-3.38,2.38v42.84c0,3.77,1.35,6.06,3,7.65,1.63,1.57.46,4.33-1.8,4.33h-30.42c-2.26,0-3.43-2.76-1.8-4.33s3-3.88,3-7.65ZM620.05,429.15c0-24.86-5.2-40.01-19.66-47.47-10.46-5.78-23.32-2.15-34.72,12.4-.35.45-.55,1.02-.55,1.59v75.1c0,.42.1.85.3,1.22,4.97,9.38,12.36,15.25,23.43,15.25,23.5,0,31.19-27.35,31.19-58.09Z"/>
    <path class="cls-1" d="M728.59,480.69c-9.27,6.33-18.76,8.59-27.8,8.59-15.15,0-28.25-10.4-28.25-25.77v-88.83h-12.89v-2.03h12.89v-10.85c0-4.38-1.82-6.76-3.82-8.37-1.85-1.49-1.23-4.44,1.08-4.98l30.76-7.22v31.42h17.18v2.03h-17.18v91.09c0,14.92,10.85,21.47,28.03,14.92Z"/>
    <path class="cls-1" d="M413.78,363.92h17.01c1.21,0,2.18.98,2.18,2.18v82.78c0,.06,0,.12,0,.18-.13,1.49-1.89,22.87,6.55,31.66,1.35,1.41.43,3.74-1.53,3.74h-66.26s-33.05,1.88-31.11-45.97c1.65-40.57,4.7-60.06-6.57-69.18-1.64-1.33-.71-3.97,1.4-3.97h33c.26,0,.5.04.74.13,2.24.84,13.15,6.22,3.5,28.57-10.69,24.79-31.11,41.8-22.36,64.65,8.75,22.85,27.71,17.98,31.59,17.01s36.94-23.82,36.45-63.19c-.37-29.89.59-39.61-5.92-44.68-1.65-1.29-.79-3.92,1.31-3.92Z"/>
  </g>
  <g>
    <path class="cls-1" d="M204.88,447.28c0,23.51-18.99,37.52-45.21,37.52-13.78,0-27.77-3.6-37.67-9.97-.63-.4-1.39-.5-2.1-.25l-2.25.8c-1.49.53-3.08-.5-3.2-2.08l-1.14-14.77c-.19-2.49,3.04-3.57,4.42-1.48,7.47,11.33,21.38,25.26,41.95,25.26,15.15,0,26.9-7.91,26.9-20.12,0-25.09-71.88-23.96-71.88-64.64,0-23.73,23.51-33,42.94-33,11.55,0,22.29,3.64,28.97,7.48.69.4,1.53.45,2.25.11h0c1.52-.72,3.29.3,3.42,1.98l.7,8.55c.21,2.51-3.07,3.57-4.43,1.45-5.93-9.25-15.69-17.53-30.9-17.53-10.62,0-21.47,4.52-21.47,18.53,0,29.39,68.71,26.9,68.71,62.16Z"/>
    <path class="cls-1" d="M319.98,466.26c-8.82,11.98-25.09,18.54-42.04,18.54-33.23,0-60.12-26.9-60.12-60.12s26.9-60.12,60.12-60.12c14.24,0,29.16,6.33,37.75,18.76l-11.29,4.72c-1.95.82-4.19-.19-4.86-2.2-3.14-9.4-11.05-19.05-21.59-19.25-21.47,0-31.19,27.58-31.19,58.09,0,21.25,5.65,45.43,25.54,52.44,16.5,5.42,35.26-.68,47.69-10.85Z"/>
    <path class="cls-1" d="M504.46,485.66h-32.92c-1.97,0-2.78-2.44-1.26-3.69,1.95-1.61,3.71-3.98,3.71-8.28v-154.83c0-5.28-2.64-7.65-5.05-9.28-1.48-1-1.03-3.29.71-3.7l29.84-7c1.29-.3,2.53.68,2.53,2.01v172.79c0,4.3,1.76,6.67,3.71,8.28,1.52,1.25.7,3.69-1.26,3.69Z"/>
    <path class="cls-1" d="M537.1,531.09v-137.88c0-4.72-2.12-7.12-4.29-8.74-1.72-1.28-1.11-3.99.97-4.48l28.22-6.62c1.59-.37,3.12.84,3.12,2.47v8.59c0,2.38,2.97,3.44,4.49,1.61,9.18-11.01,18.72-17.02,30.77-17.02,20.05,0,38.32,16.42,45.44,39.25,13.71,43.95-22.9,88.16-68.2,80.01-3.13-.56-6.19-1.37-9.12-2.42-1.65-.59-3.38.63-3.38,2.38v42.84c0,3.77,1.35,6.06,3,7.65,1.63,1.57.46,4.33-1.8,4.33h-30.42c-2.26,0-3.43-2.76-1.8-4.33s3-3.88,3-7.65ZM620.05,429.15c0-24.86-5.2-40.01-19.66-47.47-10.46-5.78-23.32-2.15-34.72,12.4-.35.45-.55,1.02-.55,1.59v75.1c0,.42.1.85.3,1.22,4.97,9.38,12.36,15.25,23.43,15.25,23.5,0,31.19-27.35,31.19-58.09Z"/>
    <path class="cls-1" d="M728.59,480.69c-9.27,6.33-18.76,8.59-27.8,8.59-15.15,0-28.25-10.4-28.25-25.77v-88.83h-12.89v-2.03h12.89v-10.85c0-4.38-1.82-6.76-3.82-8.37-1.85-1.49-1.23-4.44,1.08-4.98l30.76-7.22v31.42h17.18v2.03h-17.18v91.09c0,14.92,10.85,21.47,28.03,14.92Z"/>
    <path class="cls-1" d="M413.78,363.92h17.01c1.21,0,2.18.98,2.18,2.18v82.78c0,.06,0,.12,0,.18-.13,1.49-1.89,22.87,6.55,31.66,1.35,1.41.43,3.74-1.53,3.74h-66.26s-33.05,1.88-31.11-45.97c1.65-40.57,4.7-60.06-6.57-69.18-1.64-1.33-.71-3.97,1.4-3.97h33c.26,0,.5.04.74.13,2.24.84,13.15,6.22,3.5,28.57-10.69,24.79-31.11,41.8-22.36,64.65,8.75,22.85,27.71,17.98,31.59,17.01s36.94-23.82,36.45-63.19c-.37-29.89.59-39.61-5.92-44.68-1.65-1.29-.79-3.92,1.31-3.92Z"/>
  </g>
  <g>
    <path class="cls-1" d="M204.88,447.28c0,23.51-18.99,37.52-45.21,37.52-13.78,0-27.77-3.6-37.67-9.97-.63-.4-1.39-.5-2.1-.25l-2.25.8c-1.49.53-3.08-.5-3.2-2.08l-1.14-14.77c-.19-2.49,3.04-3.57,4.42-1.48,7.47,11.33,21.38,25.26,41.95,25.26,15.15,0,26.9-7.91,26.9-20.12,0-25.09-71.88-23.96-71.88-64.64,0-23.73,23.51-33,42.94-33,11.55,0,22.29,3.64,28.97,7.48.69.4,1.53.45,2.25.11h0c1.52-.72,3.29.3,3.42,1.98l.7,8.55c.21,2.51-3.07,3.57-4.43,1.45-5.93-9.25-15.69-17.53-30.9-17.53-10.62,0-21.47,4.52-21.47,18.53,0,29.39,68.71,26.9,68.71,62.16Z"/>
    <path class="cls-1" d="M319.98,466.26c-8.82,11.98-25.09,18.54-42.04,18.54-33.23,0-60.12-26.9-60.12-60.12s26.9-60.12,60.12-60.12c14.24,0,29.16,6.33,37.75,18.76l-11.29,4.72c-1.95.82-4.19-.19-4.86-2.2-3.14-9.4-11.05-19.05-21.59-19.25-21.47,0-31.19,27.58-31.19,58.09,0,21.25,5.65,45.43,25.54,52.44,16.5,5.42,35.26-.68,47.69-10.85Z"/>
    <path class="cls-1" d="M504.46,485.66h-32.92c-1.97,0-2.78-2.44-1.26-3.69,1.95-1.61,3.71-3.98,3.71-8.28v-154.83c0-5.28-2.64-7.65-5.05-9.28-1.48-1-1.03-3.29.71-3.7l29.84-7c1.29-.3,2.53.68,2.53,2.01v172.79c0,4.3,1.76,6.67,3.71,8.28,1.52,1.25.7,3.69-1.26,3.69Z"/>
    <path class="cls-1" d="M537.1,531.09v-137.88c0-4.72-2.12-7.12-4.29-8.74-1.72-1.28-1.11-3.99.97-4.48l28.22-6.62c1.59-.37,3.12.84,3.12,2.47v8.59c0,2.38,2.97,3.44,4.49,1.61,9.18-11.01,18.72-17.02,30.77-17.02,20.05,0,38.32,16.42,45.44,39.25,13.71,43.95-22.9,88.16-68.2,80.01-3.13-.56-6.19-1.37-9.12-2.42-1.65-.59-3.38.63-3.38,2.38v42.84c0,3.77,1.35,6.06,3,7.65,1.63,1.57.46,4.33-1.8,4.33h-30.42c-2.26,0-3.43-2.76-1.8-4.33s3-3.88,3-7.65ZM620.05,429.15c0-24.86-5.2-40.01-19.66-47.47-10.46-5.78-23.32-2.15-34.72,12.4-.35.45-.55,1.02-.55,1.59v75.1c0,.42.1.85.3,1.22,4.97,9.38,12.36,15.25,23.43,15.25,23.5,0,31.19-27.35,31.19-58.09Z"/>
    <path class="cls-1" d="M728.59,480.69c-9.27,6.33-18.76,8.59-27.8,8.59-15.15,0-28.25-10.4-28.25-25.77v-88.83h-12.89v-2.03h12.89v-10.85c0-4.38-1.82-6.76-3.82-8.37-1.85-1.49-1.23-4.44,1.08-4.98l30.76-7.22v31.42h17.18v2.03h-17.18v91.09c0,14.92,10.85,21.47,28.03,14.92Z"/>
    <path class="cls-1" d="M413.78,363.92h17.01c1.21,0,2.18.98,2.18,2.18v82.78c0,.06,0,.12,0,.18-.13,1.49-1.89,22.87,6.55,31.66,1.35,1.41.43,3.74-1.53,3.74h-66.26s-33.05,1.88-31.11-45.97c1.65-40.57,4.7-60.06-6.57-69.18-1.64-1.33-.71-3.97,1.4-3.97h33c.26,0,.5.04.74.13,2.24.84,13.15,6.22,3.5,28.57-10.69,24.79-31.11,41.8-22.36,64.65,8.75,22.85,27.71,17.98,31.59,17.01s36.94-23.82,36.45-63.19c-.37-29.89.59-39.61-5.92-44.68-1.65-1.29-.79-3.92,1.31-3.92Z"/>
  </g>
  <g>
    <path class="cls-1" d="M116.19,509.98c-1.23-.41-2.19-.94-2.89-1.59l.93-1.95c.67.6,1.52,1.09,2.56,1.46,1.04.37,2.11.56,3.21.56,1.45,0,2.53-.25,3.25-.74.72-.49,1.08-1.15,1.08-1.96,0-.6-.2-1.09-.59-1.46-.39-.37-.88-.66-1.45-.86-.58-.2-1.39-.43-2.44-.68-1.32-.32-2.38-.63-3.19-.95-.81-.32-1.5-.8-2.08-1.46-.57-.66-.86-1.55-.86-2.66,0-.93.25-1.78.74-2.53s1.24-1.35,2.24-1.8c1-.45,2.24-.68,3.73-.68,1.03,0,2.05.13,3.05.4,1,.27,1.86.65,2.58,1.15l-.83,2c-.73-.47-1.52-.82-2.35-1.06-.83-.24-1.65-.36-2.45-.36-1.42,0-2.48.26-3.19.78-.71.52-1.06,1.18-1.06,2,0,.6.2,1.09.6,1.46s.9.67,1.49.88c.59.21,1.4.43,2.41.66,1.32.32,2.38.63,3.18.95.8.32,1.49.8,2.06,1.45.57.65.86,1.53.86,2.62,0,.92-.25,1.76-.75,2.51-.5.76-1.26,1.36-2.28,1.8-1.02.44-2.27.66-3.75.66-1.32,0-2.59-.2-3.81-.61Z"/>
    <path class="cls-1" d="M137.53,509.62c-.35.3-.78.53-1.3.69-.52.16-1.05.24-1.6.24-1.33,0-2.37-.36-3.1-1.07-.73-.72-1.1-1.74-1.1-3.08v-7.28h-2.25v-1.98h2.25v-2.9h2.4v2.9h3.8v1.98h-3.8v7.18c0,.72.18,1.27.54,1.65.36.38.87.58,1.54.58.73,0,1.36-.21,1.88-.62l.75,1.72Z"/>
    <path class="cls-1" d="M144.58,497.61c.82-.4,1.81-.6,2.97-.6v2.33c-.13-.02-.32-.03-.55-.03-1.3,0-2.32.39-3.06,1.16-.74.78-1.11,1.88-1.11,3.31v6.6h-2.4v-13.25h2.3v2.23c.42-.77,1.03-1.35,1.85-1.75Z"/>
    <path class="cls-1" d="M162.31,504.56h-10.75c.15,1.17.66,2.11,1.54,2.81.88.71,1.96,1.06,3.26,1.06,1.58,0,2.86-.53,3.83-1.6l1.33,1.55c-.6.7-1.35,1.23-2.24,1.6-.89.37-1.89.55-2.99.55-1.4,0-2.64-.29-3.73-.86-1.08-.58-1.92-1.38-2.51-2.41-.59-1.03-.89-2.2-.89-3.5s.29-2.44.86-3.47c.57-1.03,1.37-1.84,2.38-2.41,1.01-.58,2.15-.86,3.41-.86s2.4.29,3.39.86c.99.58,1.77,1.38,2.33,2.41.56,1.03.84,2.22.84,3.55,0,.18-.02.43-.05.72ZM152.92,500.09c-.77.7-1.23,1.62-1.36,2.75h8.5c-.13-1.12-.59-2.03-1.36-2.74-.78-.71-1.74-1.06-2.89-1.06s-2.11.35-2.89,1.05Z"/>
    <path class="cls-1" d="M176.77,498.48c.99.98,1.49,2.4,1.49,4.29v7.63h-2.4v-7.35c0-1.28-.31-2.25-.92-2.9-.62-.65-1.5-.97-2.65-.97-1.3,0-2.32.38-3.08,1.14s-1.13,1.85-1.13,3.26v6.83h-2.4v-13.25h2.3v2c.48-.68,1.14-1.21,1.96-1.58.83-.37,1.76-.55,2.81-.55,1.68,0,3.02.49,4.01,1.46Z"/>
    <path class="cls-1" d="M195.46,497.14v11.45c0,2.32-.58,4.03-1.72,5.14-1.15,1.11-2.87,1.66-5.15,1.66-1.25,0-2.44-.17-3.58-.51-1.13-.34-2.05-.83-2.75-1.46l1.15-1.85c.62.53,1.38.95,2.29,1.26.91.31,1.85.46,2.81.46,1.55,0,2.7-.37,3.44-1.1.74-.73,1.11-1.85,1.11-3.35v-1.05c-.57.68-1.26,1.2-2.09,1.54-.83.34-1.72.51-2.69.51-1.27,0-2.41-.27-3.44-.81-1.03-.54-1.83-1.3-2.41-2.27-.58-.97-.88-2.09-.88-3.34s.29-2.36.88-3.34c.58-.97,1.39-1.73,2.41-2.26,1.02-.53,2.17-.8,3.44-.8,1,0,1.93.18,2.79.55.86.37,1.56.91,2.11,1.63v-2.05h2.28ZM190.9,507.19c.69-.37,1.23-.88,1.63-1.54.39-.66.59-1.4.59-2.24,0-1.28-.42-2.32-1.28-3.11-.85-.79-1.94-1.19-3.28-1.19s-2.45.4-3.3,1.19c-.85.79-1.28,1.83-1.28,3.11,0,.83.2,1.58.59,2.24.39.66.93,1.17,1.63,1.54.69.37,1.48.55,2.36.55s1.65-.18,2.34-.55Z"/>
    <path class="cls-1" d="M207.49,509.62c-.35.3-.78.53-1.3.69-.52.16-1.05.24-1.6.24-1.33,0-2.37-.36-3.1-1.07-.73-.72-1.1-1.74-1.1-3.08v-7.28h-2.25v-1.98h2.25v-2.9h2.4v2.9h3.8v1.98h-3.8v7.18c0,.72.18,1.27.54,1.65.36.38.87.58,1.54.58.73,0,1.36-.21,1.88-.62l.75,1.72Z"/>
    <path class="cls-1" d="M221.48,498.48c.99.98,1.49,2.4,1.49,4.29v7.63h-2.4v-7.35c0-1.28-.31-2.25-.92-2.9-.62-.65-1.5-.97-2.65-.97-1.3,0-2.32.38-3.08,1.14s-1.13,1.85-1.13,3.26v6.83h-2.4v-18.55h2.4v7.18c.5-.63,1.15-1.13,1.96-1.48s1.71-.52,2.71-.52c1.68,0,3.02.49,4.01,1.46Z"/>
    <path class="cls-1" d="M247.29,510.67l-2.33-2.33c-1.55,1.5-3.5,2.25-5.85,2.25-1.17,0-2.22-.19-3.15-.58-.93-.38-1.66-.92-2.19-1.61s-.79-1.48-.79-2.36c0-1.07.33-2.01.99-2.84.66-.83,1.75-1.67,3.26-2.54-.77-.77-1.31-1.46-1.63-2.08-.32-.62-.48-1.26-.48-1.92,0-1.18.43-2.13,1.29-2.85.86-.72,2-1.07,3.44-1.07,1.33,0,2.39.33,3.18.98.78.65,1.18,1.54,1.18,2.67,0,.88-.29,1.68-.86,2.38s-1.53,1.43-2.86,2.2l4.33,4.3c.5-.95.86-2.01,1.07-3.18l1.93.62c-.3,1.53-.81,2.87-1.53,4l2.35,2.35-1.35,1.6ZM243.54,506.94l-4.98-4.95c-1.2.67-2.04,1.29-2.51,1.86-.48.58-.71,1.22-.71,1.94,0,.83.36,1.51,1.09,2.02.72.52,1.67.78,2.84.78,1.73,0,3.16-.55,4.28-1.65ZM238.03,495.08c-.44.39-.66.9-.66,1.54,0,.45.12.88.36,1.3.24.42.71.98,1.41,1.7,1.15-.65,1.95-1.21,2.39-1.67.44-.47.66-.98.66-1.53,0-.58-.2-1.05-.61-1.4-.41-.35-.98-.53-1.71-.53-.78,0-1.4.2-1.84.59Z"/>
    <path class="cls-1" d="M283.1,492.89l-5.85,17.5h-2.63l-4.78-13.98-4.78,13.98h-2.68l-5.85-17.5h2.58l4.73,14.23,4.93-14.23h2.3l4.83,14.3,4.83-14.3h2.38Z"/>
    <path class="cls-1" d="M296.72,504.56h-10.75c.15,1.17.66,2.11,1.54,2.81.87.71,1.96,1.06,3.26,1.06,1.58,0,2.86-.53,3.83-1.6l1.32,1.55c-.6.7-1.35,1.23-2.24,1.6-.89.37-1.89.55-2.99.55-1.4,0-2.64-.29-3.73-.86s-1.92-1.38-2.51-2.41c-.59-1.03-.89-2.2-.89-3.5s.29-2.44.86-3.47,1.37-1.84,2.38-2.41c1.01-.58,2.15-.86,3.41-.86s2.4.29,3.39.86c.99.58,1.77,1.38,2.32,2.41.56,1.03.84,2.22.84,3.55,0,.18-.02.43-.05.72ZM287.33,500.09c-.78.7-1.23,1.62-1.36,2.75h8.5c-.13-1.12-.59-2.03-1.36-2.74-.77-.71-1.74-1.06-2.89-1.06s-2.11.35-2.89,1.05Z"/>
    <path class="cls-1" d="M300.1,491.84h2.4v18.55h-2.4v-18.55Z"/>
    <path class="cls-1" d="M307.07,491.84h2.4v18.55h-2.4v-18.55Z"/>
    <path class="cls-1" d="M325.14,498.48c.99.98,1.49,2.4,1.49,4.29v7.63h-2.4v-7.35c0-1.28-.31-2.25-.93-2.9-.62-.65-1.5-.97-2.65-.97-1.3,0-2.33.38-3.08,1.14-.75.76-1.12,1.85-1.12,3.26v6.83h-2.4v-13.25h2.3v2c.48-.68,1.14-1.21,1.96-1.58.83-.37,1.76-.55,2.81-.55,1.68,0,3.02.49,4.01,1.46Z"/>
    <path class="cls-1" d="M343.07,504.56h-10.75c.15,1.17.66,2.11,1.54,2.81.87.71,1.96,1.06,3.26,1.06,1.58,0,2.86-.53,3.83-1.6l1.32,1.55c-.6.7-1.35,1.23-2.24,1.6-.89.37-1.89.55-2.99.55-1.4,0-2.64-.29-3.73-.86s-1.92-1.38-2.51-2.41c-.59-1.03-.89-2.2-.89-3.5s.29-2.44.86-3.47,1.37-1.84,2.38-2.41c1.01-.58,2.15-.86,3.41-.86s2.4.29,3.39.86c.99.58,1.77,1.38,2.32,2.41.56,1.03.84,2.22.84,3.55,0,.18-.02.43-.05.72ZM333.69,500.09c-.78.7-1.23,1.62-1.36,2.75h8.5c-.13-1.12-.59-2.03-1.36-2.74-.77-.71-1.74-1.06-2.89-1.06s-2.11.35-2.89,1.05Z"/>
    <path class="cls-1" d="M347.12,510.1c-1-.29-1.78-.66-2.35-1.11l1-1.9c.58.42,1.29.75,2.13,1,.83.25,1.67.38,2.52.38,2.1,0,3.15-.6,3.15-1.8,0-.4-.14-.72-.42-.95-.28-.23-.64-.4-1.06-.51-.42-.11-1.03-.23-1.81-.36-1.07-.17-1.94-.36-2.61-.58-.68-.22-1.25-.58-1.74-1.1-.48-.52-.72-1.24-.72-2.17,0-1.2.5-2.16,1.5-2.89,1-.72,2.34-1.09,4.03-1.09.88,0,1.77.11,2.65.33.88.22,1.61.51,2.18.87l-1.03,1.9c-1.08-.7-2.36-1.05-3.82-1.05-1.02,0-1.79.17-2.33.5-.53.33-.8.77-.8,1.32,0,.43.15.78.45,1.03.3.25.67.43,1.11.55.44.12,1.06.25,1.86.4,1.07.18,1.93.38,2.59.59.66.21,1.22.56,1.69,1.06.47.5.7,1.2.7,2.1,0,1.2-.51,2.15-1.54,2.86-1.03.71-2.42,1.06-4.19,1.06-1.08,0-2.13-.15-3.13-.44Z"/>
    <path class="cls-1" d="M359.65,510.1c-1-.29-1.78-.66-2.35-1.11l1-1.9c.58.42,1.29.75,2.13,1,.83.25,1.67.38,2.52.38,2.1,0,3.15-.6,3.15-1.8,0-.4-.14-.72-.42-.95-.28-.23-.64-.4-1.06-.51-.42-.11-1.03-.23-1.81-.36-1.07-.17-1.94-.36-2.61-.58-.68-.22-1.25-.58-1.74-1.1-.48-.52-.72-1.24-.72-2.17,0-1.2.5-2.16,1.5-2.89,1-.72,2.34-1.09,4.03-1.09.88,0,1.77.11,2.65.33.88.22,1.61.51,2.18.87l-1.03,1.9c-1.08-.7-2.36-1.05-3.82-1.05-1.02,0-1.79.17-2.33.5-.53.33-.8.77-.8,1.32,0,.43.15.78.45,1.03.3.25.67.43,1.11.55.44.12,1.06.25,1.86.4,1.07.18,1.93.38,2.59.59.66.21,1.22.56,1.69,1.06.47.5.7,1.2.7,2.1,0,1.2-.51,2.15-1.54,2.86-1.03.71-2.42,1.06-4.19,1.06-1.08,0-2.13-.15-3.13-.44Z"/>
    <path class="cls-1" d="M390.28,510.39l-3.78-5.38c-.47.03-.83.05-1.1.05h-4.33v5.33h-2.5v-17.5h6.83c2.27,0,4.05.54,5.35,1.62,1.3,1.08,1.95,2.58,1.95,4.48,0,1.35-.33,2.5-1,3.45s-1.62,1.64-2.85,2.08l4.15,5.88h-2.73ZM388.95,501.91c.83-.68,1.25-1.66,1.25-2.93s-.42-2.24-1.25-2.91-2.04-1.01-3.63-1.01h-4.25v7.88h4.25c1.58,0,2.79-.34,3.63-1.02Z"/>
    <path class="cls-1" d="M408.33,504.56h-10.75c.15,1.17.66,2.11,1.54,2.81.87.71,1.96,1.06,3.26,1.06,1.58,0,2.86-.53,3.83-1.6l1.32,1.55c-.6.7-1.35,1.23-2.24,1.6-.89.37-1.89.55-2.99.55-1.4,0-2.64-.29-3.73-.86s-1.92-1.38-2.51-2.41c-.59-1.03-.89-2.2-.89-3.5s.29-2.44.86-3.47,1.37-1.84,2.38-2.41c1.01-.58,2.15-.86,3.41-.86s2.4.29,3.39.86c.99.58,1.77,1.38,2.32,2.41.56,1.03.84,2.22.84,3.55,0,.18-.02.43-.05.72ZM398.94,500.09c-.78.7-1.23,1.62-1.36,2.75h8.5c-.13-1.12-.59-2.03-1.36-2.74-.77-.71-1.74-1.06-2.89-1.06s-2.11.35-2.89,1.05Z"/>
    <path class="cls-1" d="M424.21,491.84v18.55h-2.3v-2.1c-.53.73-1.21,1.29-2.02,1.67-.82.38-1.72.58-2.7.58-1.28,0-2.43-.28-3.45-.85-1.02-.57-1.81-1.36-2.39-2.39-.58-1.03-.86-2.2-.86-3.54s.29-2.51.86-3.53c.58-1.02,1.37-1.81,2.39-2.38,1.02-.57,2.17-.85,3.45-.85.95,0,1.83.18,2.62.54.8.36,1.47.89,2,1.59v-7.3h2.4ZM419.66,507.85c.68-.39,1.22-.94,1.6-1.65.38-.71.58-1.52.58-2.44s-.19-1.73-.58-2.44-.92-1.25-1.6-1.64-1.44-.58-2.27-.58-1.61.19-2.29.58c-.67.38-1.21.93-1.6,1.64-.39.71-.59,1.52-.59,2.44s.2,1.73.59,2.44c.39.71.93,1.26,1.6,1.65.68.39,1.44.59,2.29.59s1.59-.2,2.27-.59Z"/>
    <path class="cls-1" d="M446.51,496.15v1.15h3.85v1.98h-3.8v11.28h-2.4v-11.28h-2.25v-1.98h2.25v-1.18c0-1.32.38-2.36,1.15-3.13.77-.77,1.84-1.15,3.23-1.15.53,0,1.03.07,1.5.2.47.13.87.33,1.2.58l-.72,1.83c-.55-.42-1.17-.63-1.85-.63-1.43,0-2.15.78-2.15,2.33ZM454.67,494.3c-.31-.3-.46-.67-.46-1.1s.15-.8.46-1.11.7-.46,1.16-.46.85.15,1.16.44c.31.29.46.65.46,1.09s-.15.83-.46,1.14-.7.46-1.16.46-.85-.15-1.16-.45ZM454.64,497.3h2.4v13.25h-2.4v-13.25Z"/>
    <path class="cls-1" d="M472.7,498.63c.99.98,1.49,2.4,1.49,4.29v7.63h-2.4v-7.35c0-1.28-.31-2.25-.93-2.9-.62-.65-1.5-.97-2.65-.97-1.3,0-2.33.38-3.08,1.14-.75.76-1.12,1.85-1.12,3.26v6.83h-2.4v-13.25h2.3v2c.48-.68,1.14-1.21,1.96-1.58.83-.37,1.76-.55,2.81-.55,1.68,0,3.02.49,4.01,1.46Z"/>
    <path class="cls-1" d="M490.64,504.72h-10.75c.15,1.17.66,2.11,1.54,2.81.87.71,1.96,1.06,3.26,1.06,1.58,0,2.86-.53,3.83-1.6l1.32,1.55c-.6.7-1.35,1.23-2.24,1.6-.89.37-1.89.55-2.99.55-1.4,0-2.64-.29-3.73-.86s-1.92-1.38-2.51-2.41c-.59-1.03-.89-2.2-.89-3.5s.29-2.44.86-3.47,1.37-1.84,2.38-2.41c1.01-.58,2.15-.86,3.41-.86s2.4.29,3.39.86c.99.58,1.77,1.38,2.32,2.41.56,1.03.84,2.22.84,3.55,0,.18-.02.43-.05.72ZM481.25,500.25c-.78.7-1.23,1.62-1.36,2.75h8.5c-.13-1.12-.59-2.03-1.36-2.74-.77-.71-1.74-1.06-2.89-1.06s-2.11.35-2.89,1.05Z"/>
    <path class="cls-1" d="M506.51,492v18.55h-2.3v-2.1c-.53.73-1.21,1.29-2.02,1.67-.82.38-1.72.58-2.7.58-1.28,0-2.43-.28-3.45-.85-1.02-.57-1.81-1.36-2.39-2.39-.58-1.03-.86-2.2-.86-3.54s.29-2.51.86-3.53c.58-1.02,1.37-1.81,2.39-2.38,1.02-.57,2.17-.85,3.45-.85.95,0,1.83.18,2.62.54.8.36,1.47.89,2,1.59v-7.3h2.4ZM501.96,508.01c.68-.39,1.22-.94,1.6-1.65.38-.71.58-1.52.58-2.44s-.19-1.73-.58-2.44-.92-1.25-1.6-1.64-1.44-.58-2.27-.58-1.61.19-2.29.58c-.67.38-1.21.93-1.6,1.64-.39.71-.59,1.52-.59,2.44s.2,1.73.59,2.44c.39.71.93,1.26,1.6,1.65.68.39,1.44.59,2.29.59s1.59-.2,2.27-.59Z"/>
    <path class="cls-1" d="M440.11,504.78h-10.75c.15,1.17.66,2.11,1.54,2.81.87.71,1.96,1.06,3.26,1.06,1.58,0,2.86-.53,3.83-1.6l1.32,1.55c-.6.7-1.35,1.23-2.24,1.6-.89.37-1.89.55-2.99.55-1.4,0-2.64-.29-3.73-.86s-1.92-1.38-2.51-2.41c-.59-1.03-.89-2.2-.89-3.5s.29-2.44.86-3.47,1.37-1.84,2.38-2.41c1.01-.58,2.15-.86,3.41-.86s2.4.29,3.39.86c.99.58,1.77,1.38,2.32,2.41.56,1.03.84,2.22.84,3.55,0,.18-.02.43-.05.72ZM430.72,500.31c-.78.7-1.23,1.62-1.36,2.75h8.5c-.13-1.12-.59-2.03-1.36-2.74-.77-.71-1.74-1.06-2.89-1.06s-2.11.35-2.89,1.05Z"/>
  </g>
</svg>